<svg id="_x31__x2C_5" enable-background="new 0 0 36 36" height="512" viewBox="0 0 36 36" width="512" xmlns="http://www.w3.org/2000/svg"><g><path d="m4.167 8.377c0 6.917-3.583 11.667-3.583 15s1.916 10.333 17.249 10.333 17.583-9.417 17.583-13.083c.001-17.167-31.249-24.5-31.249-12.25z" fill="#efefef"/></g><g><path d="m29.625 2.25h1v2h-1z" fill="#a4afc1"/></g><g><path d="m31.875 5.25h2v1h-2z" fill="#a4afc1"/></g><g><path d="m27.25 27.25h-18.5c-1.105 0-2-.895-2-2v-15h22.5v15c0 1.105-.895 2-2 2z" fill="#f3f3f1"/></g><g><path d="m18.75 29.25h-10.5c-.828 0-1.5-.672-1.5-1.5v-5.5h13.5v5.5c0 .828-.672 1.5-1.5 1.5z" fill="#f3f3f1"/></g><g><path d="m20.25 22.25h-13.5v-2c0-.828.672-1.5 1.5-1.5h10.5c.828 0 1.5.672 1.5 1.5z" fill="#2fdf84"/></g><g><path d="m29.25 10.25h-22.5v-1.5c0-1.105.895-2 2-2h18.5c1.105 0 2 .895 2 2z" fill="#2fdf84"/></g><g><path d="m9.25 10.25v8.5l-2.5.5v-9z" fill="#d5dbe1"/></g><g><path d="m9.25 27.25v-5h-2.5v5c0 1.105.895 2 2 2h2.5c-1.105 0-2-.895-2-2z" fill="#d5dbe1"/></g><g><path d="m11 6.75h-2.25c-1.105 0-2 .895-2 2v1.5h2.25v-1.5c0-1.105.895-2 2-2z" fill="#00b871"/></g><g><path d="m11 18.75h-2.25c-1.105 0-2 .895-2 2v1.5h2.25v-1.5c0-1.105.895-2 2-2z" fill="#00b871"/></g><g><path d="m21.879 14.5h5.744v1.5h-5.744z" transform="matrix(.707 -.707 .707 .707 -3.534 21.968)"/></g><g><path d="m26 18h-3.25c-.414 0-.75-.336-.75-.75v-3.25h1.5v2.5h2.5z"/></g><g><path d="m18.75 30h-10.5c-1.241 0-2.25-1.01-2.25-2.25v-7.5c0-1.24 1.009-2.25 2.25-2.25h10.5c1.241 0 2.25 1.01 2.25 2.25v7.5c0 1.24-1.009 2.25-2.25 2.25zm-10.5-10.5c-.414 0-.75.337-.75.75v7.5c0 .413.336.75.75.75h10.5c.414 0 .75-.337.75-.75v-7.5c0-.413-.336-.75-.75-.75z"/></g><g><path d="m6.75 21.485h13.5v1.5h-13.5z"/></g><g><path d="m27.25 28h-4.25v-1.5h4.25c.689 0 1.25-.561 1.25-1.25v-16.5c0-.689-.561-1.25-1.25-1.25h-18.5c-.689 0-1.25.561-1.25 1.25v7.25h-1.5v-7.25c0-1.517 1.233-2.75 2.75-2.75h18.5c1.517 0 2.75 1.233 2.75 2.75v16.5c0 1.517-1.233 2.75-2.75 2.75z"/></g><g><path d="m6.75 9.5h22.5v1.5h-22.5z"/></g><g><path d="m2 28.5h32v1.5h-32z"/></g></svg>